<svg height="100%" viewBox="0 0 1201 277" xmlns="http://www.w3.org/2000/svg"><path d="M58.0775 4.12817H0.75V272.804H40.6878V162.657H58.0775C107.348 162.657 130.21 140.69 130.21 83.3986C130.21 26.1067 107.348 4.12817 58.0775 4.12817ZM56.142 124.732H40.6878V42.0774H56.142C82.2266 42.0774 90.2732 51.3858 90.2732 83.3986C90.2732 115.411 82.2266 124.696 56.142 124.696" fill="#000000"/><path d="M360.311 0.410767C318.428 0.410767 299.113 31.299 299.113 69.2482V207.684C299.113 237.717 311.202 263.325 337.003 272.715C352.229 277.81 368.393 277.81 383.619 272.715C409.41 263.348 421.51 237.717 421.51 207.684V69.2482C421.51 31.299 402.195 0.410767 360.331 0.410767H360.311ZM339.05 70.3719C339.05 50.2796 344.199 40.5964 360.331 40.5964C376.465 40.5964 381.612 50.2796 381.612 70.3719V206.571C381.612 226.664 376.475 236.348 360.331 236.348C344.188 236.348 339.05 226.664 339.05 206.571V70.3719Z" fill="#000000"/><path d="M583.266 232.606V153.723H634.797V113.526H583.266V44.3138H650.251V4.12817H543.328V272.804H650.333V232.606H583.266Z" fill="#000000"/><path d="M841.308 44.3138H802.672V4.12817H919.9V44.3138H881.253V272.804H841.308V44.3138Z" fill="#000000"/><path d="M931.913 69.2482C931.913 31.299 951.241 0.410767 993.116 0.410767C1034.99 0.410767 1054.3 31.299 1054.3 69.2482V207.684C1054.3 245.644 1034.98 276.532 993.116 276.532C951.251 276.532 931.913 245.644 931.913 207.684V69.2482ZM971.849 206.571C971.849 226.664 977.015 236.348 993.134 236.348C1009.26 236.348 1014.42 226.664 1014.42 206.571V70.3719C1014.42 50.2796 1009.27 40.5964 993.134 40.5964C977.006 40.5964 971.849 50.2796 971.849 70.3719V206.571Z" fill="#000000"/><path d="M475.258 4.13904V206.705C475.258 227.419 468.61 234.713 451.017 234.713H438.603V276.502H463.29C496.823 276.502 515.084 255.426 515.084 217.044V4.13904H475.258Z" fill="#000000"/><path d="M1190.52 153.6L1190.4 153.483C1190.22 153.296 1190.03 153.12 1189.84 152.956H1189.79C1189.37 152.593 1188.96 152.241 1188.54 151.926C1188.27 151.699 1187.99 151.493 1187.69 151.305C1187.32 151.036 1186.94 150.767 1186.56 150.533H1186.47L1185.61 150.029L1185.39 149.9C1180.76 147.559 1174.78 146.387 1167.14 146.224C1166.82 146.224 1166.52 146.224 1166.19 146.224L1167.48 145.72H1167.55C1190.04 136.61 1200.75 115.452 1200.75 77.8077C1200.75 24.7187 1179.56 4.35669 1133.86 4.35669H1076.34V272.716H1116.28V162.652H1138.84C1153.98 162.652 1159.69 167.697 1159.69 185.18V272.704H1198.89V187.404C1198.89 170.403 1196.63 159.806 1190.58 153.6H1190.52ZM1130.4 124.702H1116.22V42.0838H1130.4C1131.05 42.0838 1131.68 42.0838 1132.32 42.0838C1132.95 42.0838 1133.55 42.0838 1134.14 42.1542C1142.35 42.6342 1148.32 44.812 1152.47 49.6595C1156.01 53.7921 1158.2 59.8694 1159.26 68.4874C1159.33 69.2134 1159.42 69.9393 1159.5 70.7C1159.64 72.1994 1159.74 73.7802 1159.84 75.3839C1159.97 77.8589 1160.03 80.5048 1160.03 83.3226C1160.03 115.312 1151.98 124.62 1130.4 124.62" fill="#000000"/><path d="M265.295 153.6L265.173 153.483C264.981 153.296 264.798 153.12 264.606 152.956C264.606 152.956 264.606 152.956 264.555 152.956C264.14 152.593 263.724 152.241 263.309 151.926C263.037 151.702 262.757 151.495 262.468 151.305C262.093 151.036 261.718 150.767 261.333 150.533H261.232L260.381 150.029L260.147 149.9C255.536 147.559 249.547 146.387 241.906 146.224C241.582 146.224 241.277 146.224 240.954 146.224L242.24 145.72C242.24 145.72 242.24 145.72 242.301 145.72C264.808 136.61 275.51 115.452 275.51 77.8077C275.51 24.7187 254.31 4.35669 208.626 4.35669H151.157V272.716H191.095V162.652H213.612C228.753 162.652 234.458 167.697 234.458 185.18V272.704H273.666V187.404C273.666 170.403 271.396 159.806 265.356 153.6H265.295ZM205.17 124.702H190.984V42.0838H205.17C205.83 42.0838 206.458 42.0838 207.086 42.0838C207.714 42.0838 208.322 42.0838 208.91 42.1542C217.128 42.6342 223.098 44.812 227.232 49.6595C230.789 53.7921 232.968 59.8694 234.022 68.4874C234.103 69.2134 234.184 69.9393 234.265 70.7C234.418 72.1994 234.518 73.7802 234.61 75.3839C234.731 77.8543 234.802 80.5011 234.802 83.3226C234.802 115.312 226.756 124.62 205.17 124.62" fill="#000000"/><path d="M790.829 93.7656V74.0481C790.829 33.8625 771.504 0.375 731.567 0.375C689.703 0.375 670.368 31.2632 670.368 69.2125V207.659C670.368 245.62 689.703 276.508 731.567 276.508C771.504 276.508 790.829 245.62 790.829 207.659V176.783H750.892V209.159C750.892 226.64 746.068 236.323 731.567 236.323C715.463 236.323 710.285 226.64 710.285 206.535V70.348C710.285 50.2557 715.443 40.5725 731.567 40.5725C741.873 40.5725 750.892 50.2557 750.892 72.9473V93.7656H790.829Z" fill="#000000"/></svg>