<svg height="100%" viewBox="0 0 60 60" xmlns="http://www.w3.org/2000/svg"><path fill-rule="evenodd" clip-rule="evenodd" d="M9.47369 34.7359C12.0898 34.7359 14.2105 32.6152 14.2105 29.9991C14.2105 27.383 12.0898 25.2622 9.47369 25.2622C6.8576 25.2622 4.73684 27.383 4.73684 29.9991C4.73684 32.6152 6.8576 34.7359 9.47369 34.7359ZM9.47369 39.4728C14.7059 39.4728 18.9474 35.2312 18.9474 29.9991C18.9474 24.7669 14.7059 20.5254 9.47369 20.5254C4.24151 20.5254 0 24.7669 0 29.9991C0 35.2312 4.24151 39.4728 9.47369 39.4728Z" fill="#0345cf"/><path fill-rule="evenodd" clip-rule="evenodd" d="M28.421 0.25C28.421 0.111929 28.5329 0 28.671 0H32.9079C33.0459 0 33.1579 0.111929 33.1579 0.25V21.9435C33.1579 22.1857 33.4678 22.2864 33.6101 22.0905L46.3616 4.53963C46.4427 4.42792 46.5991 4.40316 46.7108 4.48432L50.1385 6.97467C50.2502 7.05583 50.2749 7.21217 50.1938 7.32387L37.4434 24.8732C37.3011 25.0691 37.4926 25.3327 37.723 25.2579L58.3531 18.5548C58.4844 18.5121 58.6254 18.584 58.6681 18.7153L59.9774 22.7447C60.02 22.8761 59.9482 23.0171 59.8169 23.0598L39.1859 29.7632C38.9555 29.838 38.9555 30.1638 39.1859 30.2387L59.8167 36.9419C59.948 36.9846 60.0198 37.1256 59.9772 37.257L58.6679 41.2864C58.6252 41.4177 58.4842 41.4896 58.3529 41.4469L37.7258 34.7449C37.4955 34.6701 37.304 34.9337 37.4463 35.1296L50.1947 52.6763C50.2759 52.788 50.2511 52.9443 50.1394 53.0255L46.7117 55.5159C46.6 55.597 46.4437 55.5722 46.3625 55.4605L33.6101 37.9083C33.4678 37.7124 33.1579 37.8131 33.1579 38.0553V59.75C33.1579 59.8881 33.0459 60 32.9079 60H28.671C28.5329 60 28.421 59.8881 28.421 59.75V0.25Z" fill="#0345cf"/></svg>