<svg xmlns="http://www.w3.org/2000/svg" width="100%" viewBox="0 0 57 57"><path fill-rule="evenodd" clip-rule="evenodd" d="M8.9917 32.9695C11.4747 32.9695 13.4876 30.9566 13.4876 28.4736C13.4876 25.9906 11.4747 23.9778 8.9917 23.9778C6.50871 23.9778 4.49585 25.9906 4.49585 28.4736C4.49585 30.9566 6.50871 32.9695 8.9917 32.9695ZM8.9917 37.4653C13.9577 37.4653 17.9834 33.4396 17.9834 28.4736C17.9834 23.5077 13.9577 19.4819 8.9917 19.4819C4.02572 19.4819 0 23.5077 0 28.4736C0 33.4396 4.02572 37.4653 8.9917 37.4653Z" fill="currentColor" fill-opacity="1.0"/><path fill-rule="evenodd" clip-rule="evenodd" d="M26.9751 1C26.9751 0.447716 27.4228 0 27.9751 0H30.4709C31.0232 0 31.4709 0.447715 31.4709 1V20.7881C31.4709 21.0302 31.7809 21.1309 31.9232 20.935L43.5546 4.92573C43.8792 4.47893 44.5046 4.37988 44.9514 4.7045L46.9706 6.17153C47.4174 6.49615 47.5165 7.12152 47.1918 7.56833L35.562 23.5754C35.4196 23.7714 35.6112 24.035 35.8415 23.9601L54.6589 17.846C55.1841 17.6754 55.7483 17.9628 55.9189 18.4881L56.6902 20.8618C56.8609 21.387 56.5734 21.9512 56.0482 22.1218L37.2306 28.236C37.0003 28.3109 37.0003 28.6367 37.2306 28.7115L56.0481 34.8257C56.5734 34.9964 56.8608 35.5605 56.6902 36.0858L55.9189 38.4595C55.7482 38.9847 55.1841 39.2722 54.6588 39.1015L35.8421 32.9876C35.6118 32.9128 35.4202 33.1764 35.5626 33.3723L47.1922 49.3792C47.5169 49.826 47.4178 50.4513 46.971 50.776L44.9518 52.243C44.505 52.5676 43.8796 52.4686 43.555 52.0217L31.9232 36.0119C31.7809 35.816 31.4709 35.9167 31.4709 36.1589V55.9474C31.4709 56.4997 31.0232 56.9474 30.4709 56.9474H27.9751C27.4228 56.9474 26.9751 56.4997 26.9751 55.9474V1Z" fill="currentColor" fill-opacity="1.0"/></svg>